<?xml version="1.0" standalone="no"?>
<!DOCTYPE svg PUBLIC "-//W3C//DTD SVG 20010904//EN"
 "http://www.w3.org/TR/2001/REC-SVG-20010904/DTD/svg10.dtd">
<svg version="1.0" xmlns="http://www.w3.org/2000/svg"
 width="732.000000pt" height="206.000000pt" viewBox="0 0 732.000000 206.000000"
 preserveAspectRatio="xMidYMid meet">

<g transform="translate(0.000000,206.000000) scale(0.100000,-0.100000)"
fill="#000000" stroke="none">
<path d="M30 1020 l0 -1000 3645 0 3645 0 0 1000 0 1000 -3645 0 -3645 0 0
-1000z m7230 0 l0 -940 -3585 0 -3585 0 0 940 0 940 3585 0 3585 0 0 -940z"/>
<path d="M230 1020 l0 -810 1720 0 1720 0 0 810 0 810 -1720 0 -1720 0 0 -810z
m1020 250 c78 -43 110 -142 75 -227 -35 -84 -91 -112 -217 -113 l-88 0 0 -90
0 -90 -35 0 -35 0 0 276 0 276 128 -4 c113 -3 132 -6 172 -28z m330 -210 l0
-239 133 -3 132 -3 3 -32 3 -33 -170 0 -171 0 0 275 0 275 35 0 35 0 0 -240z
m766 -38 l112 -273 -40 3 c-38 3 -41 5 -62 58 l-22 55 -136 3 -135 3 -23 -61
c-22 -59 -23 -60 -62 -60 -22 0 -38 4 -36 8 2 5 52 129 113 276 l110 267 34
-3 34 -3 113 -273z m354 141 c41 -73 77 -132 80 -133 3 0 40 61 83 135 l79
135 40 0 39 0 -31 -56 c-18 -30 -63 -108 -101 -172 l-69 -117 0 -102 0 -103
-40 0 -40 0 0 103 0 102 -69 117 c-38 64 -83 142 -101 173 l-32 56 43 -3 43
-3 76 -132z"/>
<path d="M1020 1115 l0 -115 89 0 c74 0 93 3 114 21 36 28 51 86 35 135 -18
55 -60 74 -160 74 l-78 0 0 -115z"/>
<path d="M2147 1072 c-26 -64 -47 -120 -47 -124 0 -5 45 -8 101 -8 79 0 100 3
96 13 -28 74 -91 224 -96 229 -3 4 -28 -45 -54 -110z"/>
<path d="M5079 1297 c-264 -59 -300 -416 -54 -529 71 -32 189 -32 263 1 146
65 204 247 126 392 -61 113 -195 167 -335 136z m172 -176 c35 -35 39 -44 39
-90 0 -71 -21 -108 -77 -133 -101 -45 -193 16 -193 127 0 87 49 134 139 135
49 0 57 -3 92 -39z"/>
<path d="M5729 1297 c-264 -59 -300 -416 -54 -529 71 -32 189 -32 263 1 146
65 204 247 126 392 -61 113 -195 167 -335 136z m172 -176 c35 -35 39 -44 39
-90 0 -71 -21 -108 -77 -133 -101 -45 -193 16 -193 127 0 87 49 134 139 135
49 0 57 -3 92 -39z"/>
<path d="M4340 1026 l0 -276 153 0 c178 0 218 9 269 60 33 33 38 44 38 84 0
55 -12 82 -48 113 l-25 21 26 31 c64 76 36 184 -58 222 -17 6 -102 14 -192 17
l-163 5 0 -277z m278 142 c19 -19 15 -66 -7 -78 -11 -5 -42 -10 -70 -10 l-51
0 0 50 0 50 58 0 c32 0 63 -5 70 -12z m14 -215 c22 -20 23 -46 2 -67 -11 -11
-35 -16 -80 -16 l-64 0 0 50 0 50 62 0 c43 0 67 -5 80 -17z"/>
<path d="M6190 1025 l0 -275 75 0 75 0 0 105 0 105 38 0 37 0 53 -105 52 -105
91 0 c49 0 88 3 86 8 -2 4 -35 63 -72 131 -66 120 -67 124 -52 150 12 21 40
86 104 249 4 10 -13 12 -78 10 l-83 -3 -33 -85 c-18 -47 -41 -91 -50 -97 -9
-7 -34 -13 -55 -13 l-38 0 0 100 0 100 -75 0 -75 0 0 -275z"/>
</g>
</svg>
